# xmcd CD database file
#
# Track frame offsets:
#	150
#	19105
#	34384
#	49159
#	66151
#	78555
#	92234
#	105583
#	122199
#	132495
#	145609
#	164787
#	174783
#	195207
#	213314
#	227923
#	242863
#	257655
#	271908
#	288502
#	302460
#	318836
#	335815
#
# Disc length: 4646 seconds
#
# Revision: 0
# Processed by: cddbd v1.4PL0 Copyright (c) Steve Scherf et al.
# Submitted via: CDex 1.50beta10
#
DISCID=50122417
DTITLE=Junior Parker - Way back home - The Groove Merchant years (Best of)
DYEAR=1970
DGENRE=Jazz
TTITLE0=Blue shadows falling
TTITLE1=Love ain't nothing but a business goin' on
TTITLE2=The outside man
TTITLE3=Darling depend on me
TTITLE4=The river's invitation
TTITLE5=Five long years
TTITLE6=Look on Yonders wall
TTITLE7=You know I love you
TTITLE8=Lady Madonna
TTITLE9=Man or mouse
TTITLE10=Pretty baby
TTITLE11=Sweet home Chicago
TTITLE12=Don't throw your love on me so strong
TTITLE13=Way back home
TTITLE14=I like your style
TTITLE15=I need love so bad
TTITLE16=A losing battle
TTITLE17=That's alright
TTITLE18=Tin Pan Alley
TTITLE19=Drowning on dry land
TTITLE20=Oh darling
TTITLE21=Workin'
TTITLE22=Ain't that a shame
EXTD=YEAR: 1970
EXTT0=
EXTT1=
EXTT2=
EXTT3=
EXTT4=
EXTT5=
EXTT6=
EXTT7=
EXTT8=
EXTT9=
EXTT10=
EXTT11=
EXTT12=
EXTT13=
EXTT14=
EXTT15=
EXTT16=
EXTT17=
EXTT18=
EXTT19=
EXTT20=
EXTT21=
EXTT22=
PLAYORDER=
